<svg xmlns="http://www.w3.org/2000/svg" viewBox="0 0 191.58 185.16"><defs><style>.cls-1{fill:#fff;}</style></defs><title>Asset 1</title><g id="Layer_2" data-name="Layer 2"><g id="Layer_1-2" data-name="Layer 1"><polygon points="191.58 99.58 159.5 131.66 159.5 99.58 191.58 99.58"/><polygon points="191.58 85.58 159.5 85.58 159.5 53.5 191.58 85.58"/><polygon points="145.5 99.58 145.5 145.66 106 185.16 106 99.58 145.5 99.58"/><polygon points="145.5 39.5 145.5 39.58 106 39.58 106 0 145.5 39.5"/><polygon points="92 99.58 92 184.58 52.5 145.08 52.5 99.58 92 99.58"/><polygon points="92 0.58 92 85.58 52.5 85.58 52.5 40.08 92 0.58"/><rect x="106" y="53.58" width="39.5" height="32"/><polygon class="cls-1" points="145.58 39.58 145.5 39.58 145.5 39.5 145.58 39.58"/><polygon points="38.5 54.08 38.5 131.08 0 92.58 38.5 54.08"/></g></g></svg>